<svg xmlns="http://www.w3.org/2000/svg" xmlns:xlink="http://www.w3.org/1999/xlink" width="135" height="236" viewBox="0 0 135 236">
    <defs>
        <linearGradient id="b" x1="29.755%" x2="66.447%" y1="100%" y2="9.767%">
            <stop offset="0%" stop-color="#00ADFF"/>
            <stop offset="100%" stop-color="#326AE7"/>
        </linearGradient>
        <path id="a" d="M38.09 166.912a3.922 3.922 0 0 1 0-.592 3.922 3.922 0 0 1 0-.593 3.922 3.922 0 0 1 0-.593 3.922 3.922 0 0 1 0-.593 3.922 3.922 0 0 1 0-.593 3.922 3.922 0 0 1 0-.592 3.922 3.922 0 0 1 0-.593 3.922 3.922 0 0 1 0-.593 3.922 3.922 0 0 1 0-.593 3.922 3.922 0 0 1 0-.592 3.923 3.923 0 0 1 0-.593 3.923 3.923 0 0 1 0-.593 3.923 3.923 0 0 1 0-.593 3.922 3.922 0 0 1 0-.592 3.922 3.922 0 0 1 0-.593 3.922 3.922 0 0 1 0-.593 3.922 3.922 0 0 1 0-.593 3.922 3.922 0 0 1 0-.593 3.922 3.922 0 0 1 0-.592 3.922 3.922 0 0 1 0-.593 3.922 3.922 0 0 1 0-.593 3.922 3.922 0 0 1 0-.592 3.922 3.922 0 0 1 0-.593 3.922 3.922 0 0 1 0-.593 3.922 3.922 0 0 1 0-.593 3.922 3.922 0 0 1 0-.593 3.922 3.922 0 0 1 0-.592 3.922 3.922 0 0 1 0-.593 3.922 3.922 0 0 1 0-.593 3.922 3.922 0 0 1 0-.593 3.922 3.922 0 0 1 0-.593 3.922 3.922 0 0 1 0-.592 3.922 3.922 0 0 1 0-.593 3.922 3.922 0 0 1 0-.593 3.922 3.922 0 0 1 0-.593 3.922 3.922 0 0 1 0-.593 3.922 3.922 0 0 1 0-.592 3.923 3.923 0 0 1 0-.593 3.94 3.94 0 0 1-.01-.362 4.684 4.684 0 0 1-.306-1.03 4.952 4.952 0 0 1-.357-1.149 5.172 5.172 0 0 1-.359-1.146 5.395 5.395 0 0 1-.359-1.147 5.622 5.622 0 0 1-.36-1.145 5.852 5.852 0 0 1-.36-1.145 6.087 6.087 0 0 1-.36-1.142 6.325 6.325 0 0 1-.36-1.143 6.567 6.567 0 0 1-.362-1.142 6.812 6.812 0 0 1-.361-1.139 7.06 7.06 0 0 1-.362-1.14 7.309 7.309 0 0 1-.363-1.14 7.561 7.561 0 0 1-.362-1.137 7.818 7.818 0 0 1-.362-1.138 8.076 8.076 0 0 1-.362-1.134 8.336 8.336 0 0 1-.365-1.14 8.596 8.596 0 0 1-.362-1.133 8.862 8.862 0 0 1-.364-1.136c-.149-.381-.27-.76-.363-1.135a9.396 9.396 0 0 1-.364-1.133 9.665 9.665 0 0 1-.364-1.134 9.937 9.937 0 0 1-.363-1.132c-.147-.381-.269-.76-.365-1.134-.146-.38-.267-.758-.364-1.132a10.762 10.762 0 0 1-.363-1.127 11.038 11.038 0 0 1-.367-1.137 11.315 11.315 0 0 1-.363-1.127c-.145-.382-.267-.76-.366-1.135a11.875 11.875 0 0 1-.363-1.126 12.16 12.16 0 0 1-.366-1.13c-.142-.38-.264-.757-.365-1.13-.142-.38-.264-.757-.365-1.13-.142-.38-.264-.756-.365-1.13a13.298 13.298 0 0 1-.365-1.125c-.14-.38-.262-.756-.365-1.129-.14-.38-.263-.756-.366-1.129-.14-.379-.262-.755-.365-1.128-.14-.378-.261-.753-.365-1.125-.14-.38-.262-.757-.367-1.13-.138-.378-.26-.753-.364-1.124-.14-.378-.261-.754-.366-1.126-.139-.38-.26-.756-.366-1.129-.139-.379-.26-.755-.366-1.128a16.21 16.21 0 0 1-.365-1.122c-.138-.379-.26-.754-.366-1.127-.138-.378-.26-.754-.366-1.126-.138-.38-.26-.755-.367-1.128a17.394 17.394 0 0 1-.365-1.122c-.137-.379-.26-.755-.367-1.127a17.99 17.99 0 0 1-.365-1.123 18.291 18.291 0 0 1-.366-1.124 18.588 18.588 0 0 1-.367-1.128 18.884 18.884 0 0 1-.366-1.126 19.19 19.19 0 0 1-.365-1.117 19.494 19.494 0 0 1-.367-1.127c-.136-.38-.259-.756-.368-1.13-.134-.376-.256-.75-.365-1.12-.135-.377-.256-.75-.365-1.122-.136-.379-.259-.756-.369-1.13a20.997 20.997 0 0 1-.364-1.117 21.302 21.302 0 0 1-.368-1.127c-.134-.376-.256-.75-.365-1.121a21.908 21.908 0 0 1-.367-1.125 22.212 22.212 0 0 1-.367-1.123c-.133-.376-.255-.75-.366-1.12a22.824 22.824 0 0 1-.367-1.125 23.127 23.127 0 0 1-.366-1.123 23.433 23.433 0 0 1-.367-1.124 23.736 23.736 0 0 1-.367-1.124 24.046 24.046 0 0 1-.365-1.117 24.351 24.351 0 0 1-.369-1.13 24.658 24.658 0 0 1-.364-1.115c-.134-.379-.257-.756-.37-1.13a25.272 25.272 0 0 1-.363-1.114 25.583 25.583 0 0 1-.369-1.127c-.132-.376-.254-.75-.366-1.12-.132-.376-.254-.75-.366-1.122a26.504 26.504 0 0 1-.368-1.124 26.806 26.806 0 0 1-.368-1.126 27.12 27.12 0 0 1-.363-1.111 27.43 27.43 0 0 1-.37-1.133c-.131-.372-.252-.743-.364-1.112-.133-.379-.256-.756-.37-1.13-.13-.373-.251-.743-.363-1.112a28.67 28.67 0 0 1-.37-1.13c-.131-.374-.253-.746-.365-1.116a29.286 29.286 0 0 1-.369-1.126c-.13-.375-.253-.748-.366-1.118a29.906 29.906 0 0 1-.368-1.126c-.13-.375-.253-.748-.366-1.12-.13-.374-.253-.747-.366-1.117-.13-.375-.252-.747-.366-1.117a31.154 31.154 0 0 1-.37-1.129 31.455 31.455 0 0 1-.368-1.126c-.129-.372-.25-.743-.363-1.11a32.087 32.087 0 0 1-.37-1.128c-.128-.371-.249-.74-.362-1.107a32.709 32.709 0 0 1-.374-1.143c-.128-.37-.25-.739-.362-1.105-.13-.377-.253-.751-.368-1.124-5.276-15.21 2.404-27.283 22.134-30.253 28.317-4.263 70.733 11.84 94.738 35.968 16.797 16.882 20.13 33.22 10.915 42.97a19.33 19.33 0 0 1-.601.665c-.197.229-.4.454-.61.676-.194.226-.394.448-.6.666-.197.229-.4.454-.61.675a18.76 18.76 0 0 1-.599.664c-.195.228-.398.453-.607.673-.195.227-.397.451-.605.671-.194.227-.396.45-.603.67-.194.225-.394.447-.602.666-.196.23-.4.455-.61.677-.194.226-.395.45-.603.668-.195.227-.397.45-.605.67-.193.226-.393.448-.6.667-.197.23-.401.456-.613.678-.191.224-.39.445-.596.662-.196.228-.398.453-.609.674-.193.227-.394.45-.602.669-.195.228-.397.452-.607.673-.194.226-.394.45-.603.668-.194.227-.395.451-.605.67-.193.228-.394.451-.603.67-.195.23-.398.454-.608.675a16.2 16.2 0 0 1-.6.666c-.194.227-.396.451-.605.67-.194.23-.397.453-.607.674-.193.227-.394.45-.603.67-.193.226-.393.448-.602.667-.194.229-.397.454-.608.675-.193.227-.395.45-.604.67-.193.227-.394.45-.603.669-.193.227-.394.45-.604.67-.193.228-.394.451-.604.67-.194.23-.397.455-.608.676-.191.226-.39.447-.599.664-.194.23-.398.456-.61.678-.192.227-.393.45-.602.668-.192.227-.393.45-.603.669-.192.228-.393.451-.604.67-.192.23-.394.454-.605.673-.193.229-.395.453-.606.673-.191.227-.392.45-.602.668-.191.228-.392.451-.603.67-.193.23-.396.455-.608.676-.192.228-.393.452-.605.671-.19.227-.39.448-.599.666-.191.229-.393.453-.604.672-.193.23-.396.456-.61.677-.19.228-.39.45-.602.67-.19.227-.392.451-.603.67-.19.227-.39.45-.601.668-.193.231-.396.457-.61.678-.19.227-.39.45-.601.669-.19.227-.39.45-.601.669-.192.23-.396.457-.61.678-.188.226-.387.448-.597.664-.192.231-.395.457-.61.678-.189.228-.39.452-.602.67-.19.23-.39.454-.604.672-.189.23-.39.453-.603.672-.19.23-.392.455-.606.675-.189.229-.39.452-.602.67-.19.23-.391.455-.605.674-.188.228-.388.451-.6.669-.189.23-.39.455-.605.675-.19.23-.391.456-.606.675-.189.23-.39.454-.604.673-.187.229-.388.452-.6.67-.19.23-.391.456-.606.676a9.85 9.85 0 0 1-.6.67c-.19.232-.393.46-.61.68a9.59 9.59 0 0 1-.596.666 9.462 9.462 0 0 1-.611.683 9.335 9.335 0 0 1-.6.67c-.186.23-.386.454-.601.672a9.076 9.076 0 0 1-.606.678c-.185.23-.386.454-.6.672a8.823 8.823 0 0 1-.608.68 8.7 8.7 0 0 1-.601.673c-.184.23-.385.455-.601.674a8.448 8.448 0 0 1-.604.677 8.329 8.329 0 0 1-.605.679c-.183.23-.384.456-.601.675a8.085 8.085 0 0 1-.602.676c-.183.232-.385.46-.604.68a7.853 7.853 0 0 1-.603.678 7.736 7.736 0 0 1-.6.676 7.625 7.625 0 0 1-.607.684c-.18.23-.38.455-.597.674a7.4 7.4 0 0 1-.605.683c-.18.233-.38.46-.6.68-.18.234-.382.462-.603.684-.18.232-.38.46-.601.681-.18.234-.38.463-.603.686a6.89 6.89 0 0 1-.6.682 6.796 6.796 0 0 1-.601.686 6.707 6.707 0 0 1-.601.687 6.624 6.624 0 0 1-.603.69 6.543 6.543 0 0 1-.599.688c-.091.123-.189.244-.294.364.01.169.008.337-.005.505.015.198.015.396 0 .593.015.198.015.396 0 .593.015.198.015.396 0 .593.015.198.015.395 0 .592.015.198.015.396 0 .593.015.198.015.396 0 .593.015.198.015.396 0 .593.015.198.015.395 0 .592.015.198.015.396 0 .593.015.198.015.396 0 .593.015.198.015.396 0 .593.015.198.015.396 0 .593.015.198.015.395 0 .592.015.198.015.396 0 .593.015.198.015.396 0 .593.015.198.015.395 0 .593.015.197.015.395 0 .592.015.198.015.396 0 .593.015.198.015.396 0 .593.015.198.015.396 0 .593.015.198.015.395 0 .592.015.198.015.396 0 .593.015.198.015.396 0 .593.015.198.015.396 0 .593.015.198.015.396 0 .593.015.198.015.395 0 .592.015.198.015.396 0 .593.015.198.015.396 0 .593.015.198.015.396 0 .593.015.198.015.396 0 .593.015.198.015.395 0 .592.015.198.015.396 0 .593.015.198.015.396 0 .593.015.198.015.396 0 .593.015.198.015.395 0 .592.015.198.015.396 0 .593.137 1.815-.978 3.61-3.426 5.038-5.46 3.188-15.484 3.349-22.389.36-4.147-1.796-6.226-4.319-6.042-6.739z"/>
        <linearGradient id="e" x1="50%" x2="59.579%" y1="100%" y2="-27.209%">
            <stop offset="0%" stop-color="#D6E5FF"/>
            <stop offset="100%" stop-color="#7FC7FF"/>
        </linearGradient>
        <path id="d" d="M22.465.95c26.65-4.022 66.546 11.01 89.109 33.575 22.563 22.565 19.249 44.118-7.402 48.139-26.65 4.021-66.547-11.011-89.11-33.576C-7.5 26.524-4.186 4.971 22.465.95"/>
        <path id="h" d="M58.987 87.82C93.55 94.617 121.2 83.164 121.2 64.382c0-18.783-33.854-37.57-62.213-44.185C30.627 13.583-2.4 14.574-2.4 40.812s26.823 40.21 61.387 47.007z"/>
        <filter id="g" width="101.2%" height="103.4%" x="-.6%" y="-1%" filterUnits="objectBoundingBox">
            <feMorphology in="SourceAlpha" operator="dilate" radius=".25" result="shadowSpreadOuter1"/>
            <feOffset dy="1" in="shadowSpreadOuter1" result="shadowOffsetOuter1"/>
            <feMorphology in="SourceAlpha" radius="1" result="shadowInner"/>
            <feOffset dy="1" in="shadowInner" result="shadowInner"/>
            <feComposite in="shadowOffsetOuter1" in2="shadowInner" operator="out" result="shadowOffsetOuter1"/>
            <feColorMatrix in="shadowOffsetOuter1" values="0 0 0 0 0 0 0 0 0 0 0 0 0 0 0 0 0 0 0.15 0"/>
        </filter>
        <path id="j" d="M58.467 91.201C86.32 96.662 108.6 87.463 108.6 72.375c0-15.087-27.28-30.18-50.133-35.493C35.615 31.57 9 32.365 9 53.442c0 21.076 21.614 32.298 49.467 37.76z"/>
        <filter id="i" width="101.5%" height="104.4%" x="-.8%" y="-1.4%" filterUnits="objectBoundingBox">
            <feMorphology in="SourceAlpha" operator="dilate" radius=".25" result="shadowSpreadOuter1"/>
            <feOffset dy="1" in="shadowSpreadOuter1" result="shadowOffsetOuter1"/>
            <feMorphology in="SourceAlpha" radius="1" result="shadowInner"/>
            <feOffset dy="1" in="shadowInner" result="shadowInner"/>
            <feComposite in="shadowOffsetOuter1" in2="shadowInner" operator="out" result="shadowOffsetOuter1"/>
            <feColorMatrix in="shadowOffsetOuter1" values="0 0 0 0 0 0 0 0 0 0 0 0 0 0 0 0 0 0 0.15 0"/>
        </filter>
        <path id="l" d="M55.87 92.869c19.295 3.845 34.73-2.633 34.73-13.256 0-10.623-18.899-21.249-34.73-24.99-15.832-3.74-34.27-3.18-34.27 11.66s14.974 22.74 34.27 26.586z"/>
        <filter id="k" width="102.2%" height="106.2%" x="-1.1%" y="-2%" filterUnits="objectBoundingBox">
            <feMorphology in="SourceAlpha" operator="dilate" radius=".25" result="shadowSpreadOuter1"/>
            <feOffset dy="1" in="shadowSpreadOuter1" result="shadowOffsetOuter1"/>
            <feMorphology in="SourceAlpha" radius="1" result="shadowInner"/>
            <feOffset dy="1" in="shadowInner" result="shadowInner"/>
            <feComposite in="shadowOffsetOuter1" in2="shadowInner" operator="out" result="shadowOffsetOuter1"/>
            <feColorMatrix in="shadowOffsetOuter1" values="0 0 0 0 0 0 0 0 0 0 0 0 0 0 0 0 0 0 0.15 0"/>
        </filter>
    </defs>
    <g fill="none" fill-rule="evenodd">
        <g transform="translate(0 60)">
            <mask id="c" fill="#fff">
                <use xlink:href="#a"/>
            </mask>
            <use fill="url(#b)" xlink:href="#a"/>
            <path stroke="#FFF" stroke-linecap="round" stroke-linejoin="round" stroke-width=".54" d="M58.862 105.942C112.274 116.46 155 98.742 155 69.68c0-29.06-52.315-58.13-96.138-68.364C15.038-8.92-36-7.384-36 33.21c0 40.596 41.45 62.212 94.862 72.73z" mask="url(#c)" opacity=".3" transform="rotate(12 59.5 52.5)"/>
            <path stroke="#FFF" stroke-linecap="round" stroke-linejoin="round" stroke-width=".5" d="M51.768 121.482C113.011 133.582 162 113.198 162 79.765S102.016 12.89 51.768 1.115C1.52-10.659-57-8.894-57 37.81c0 46.703 47.526 71.57 108.768 83.672z" mask="url(#c)" opacity=".3" transform="rotate(12 52.5 60)"/>
            <path stroke="#FFF" stroke-linecap="round" stroke-linejoin="round" stroke-width=".54" d="M62.935 90.32C110.195 99.537 148 84.013 148 58.553S101.711 7.624 62.935-1.343C24.16-10.309-21-8.965-21 26.601c0 35.567 36.675 54.504 83.935 63.72z" mask="url(#c)" opacity=".3" transform="rotate(14 63.5 43.5)"/>
        </g>
        <g transform="translate(4.2 62.395)">
            <mask id="f" fill="#fff">
                <use xlink:href="#d"/>
            </mask>
            <use fill="url(#e)" xlink:href="#d"/>
            <g stroke-linecap="round" stroke-linejoin="round" mask="url(#f)" transform="rotate(5 59.4 53.279)">
                <use fill="#000" filter="url(#g)" xlink:href="#h"/>
                <use stroke="#FFF" stroke-width=".5" xlink:href="#h"/>
            </g>
            <g stroke-linecap="round" stroke-linejoin="round" mask="url(#f)" transform="rotate(5 58.8 63.456)">
                <use fill="#000" filter="url(#i)" xlink:href="#j"/>
                <use stroke="#FFF" stroke-width=".5" xlink:href="#j"/>
            </g>
            <g stroke-linecap="round" stroke-linejoin="round" mask="url(#f)" transform="rotate(5 56.1 73.333)">
                <use fill="#000" filter="url(#k)" xlink:href="#l"/>
                <use stroke="#FFF" stroke-width=".5" xlink:href="#l"/>
            </g>
            <text fill="#86A6BA" font-family="Helvetica-Bold, Helvetica" font-size="23.4" font-weight="bold" mask="url(#f)" opacity=".3" transform="rotate(20 89.474 58.372)">
                <tspan x="82.474" y="67.372">a</tspan>
            </text>
            <text fill="#4181EB" font-family="Helvetica-Bold, Helvetica" font-size="21.6" font-weight="bold" mask="url(#f)" transform="rotate(20 83.186 63.656)">
                <tspan x="76.686" y="71.656">a</tspan>
            </text>
            <text fill="#86A6BA" font-family="Helvetica-Bold, Helvetica" font-size="23.4" font-weight="bold" mask="url(#f)" opacity=".3" transform="rotate(10 71.535 10.23)">
                <tspan x="67.535" y="19.229">!</tspan>
            </text>
        </g>
        <text fill="#4181EB" font-family="Helvetica-Bold, Helvetica" font-size="28.08" font-weight="bold" opacity=".1" transform="rotate(-20 -3.185 -43.213)">
            <tspan x=".96" y="28.432">?</tspan>
        </text>
        <g font-family="Helvetica-Bold, Helvetica" font-size="23.4" font-weight="bold">
            <text fill="#86A6BA" opacity=".3" transform="rotate(-20 132.419 13.266)">
                <tspan x=".887" y="63.668">k</tspan>
            </text>
            <text fill="#4181EB" transform="rotate(-20 132.419 13.266)">
                <tspan x="7.755" y="72.589">k</tspan>
            </text>
            <text fill="#4181EB" opacity=".4" transform="rotate(-20 132.419 13.266)">
                <tspan x="103.319" y="23.588">0</tspan>
            </text>
        </g>
        <text fill="#4181EB" font-family="Helvetica-Bold, Helvetica" font-size="23.4" font-weight="bold" transform="translate(63.465 65.015)">
            <tspan x="2.483" y="24.255">!</tspan>
        </text>
        <text fill="#4181EB" font-family="Helvetica-Bold, Helvetica" font-size="21.6" font-weight="bold" opacity=".6" transform="rotate(20 -59.761 171.632)">
            <tspan x=".949" y="21.014">y</tspan>
        </text>
    </g>
</svg>
