<svg xmlns="http://www.w3.org/2000/svg" width="319" height="225" viewBox="0 0 319 225">
    <defs>
        <linearGradient id="a" x1="0%" y1="50%" y2="50%">
            <stop offset="0%" stop-color="#00AEFF"/>
            <stop offset="100%" stop-color="#3369E7"/>
        </linearGradient>
        <linearGradient id="b" x1="0%" y1="50%" y2="50%">
            <stop offset="0%" stop-color="#00AEFF"/>
            <stop offset="100%" stop-color="#3369E7"/>
        </linearGradient>
        <linearGradient id="c" x1="0%" y1="50%" y2="50%">
            <stop offset="0%" stop-color="#00AEFF"/>
            <stop offset="100%" stop-color="#3369E7"/>
        </linearGradient>
        <linearGradient id="d" x1="13.18%" x2="83.027%" y1="104.551%" y2="1.628%">
            <stop offset="0%" stop-color="#D6E5FF"/>
            <stop offset="100%" stop-color="#7FC7FF"/>
        </linearGradient>
        <linearGradient id="e" x1="0%" y1="50%" y2="50%">
            <stop offset="0%" stop-color="#FCFCFE"/>
            <stop offset="97%" stop-color="#C3DCFF"/>
        </linearGradient>
        <linearGradient id="f" x1="0%" y1="50%" y2="50%">
            <stop offset="0%" stop-color="#D6E5FF"/>
            <stop offset="100%" stop-color="#7FC7FF"/>
        </linearGradient>
        <linearGradient id="g" x1="0%" y1="49.999%" y2="49.999%">
            <stop offset="0%" stop-color="#D6E5FF"/>
            <stop offset="100%" stop-color="#7FC7FF"/>
        </linearGradient>
        <linearGradient id="h" x1="0%" y1="50%" y2="50%">
            <stop offset="0%" stop-color="#D6E5FF"/>
            <stop offset="100%" stop-color="#7FC7FF"/>
        </linearGradient>
        <linearGradient id="i" x1="2432.721%" x2="-380.797%" y1="-284.627%" y2="110.372%">
            <stop offset="0%" stop-color="#D6E5FF"/>
            <stop offset="100%" stop-color="#7FC7FF"/>
        </linearGradient>
        <linearGradient id="j" x1="2398.758%" x2="-408.065%" y1="-280.53%" y2="114.469%">
            <stop offset="0%" stop-color="#D6E5FF"/>
            <stop offset="100%" stop-color="#7FC7FF"/>
        </linearGradient>
        <linearGradient id="k" x1="2374.682%" x2="-439.141%" y1="-276.335%" y2="118.664%">
            <stop offset="0%" stop-color="#D6E5FF"/>
            <stop offset="100%" stop-color="#7FC7FF"/>
        </linearGradient>
        <linearGradient id="l" x1="2340.36%" x2="-466.464%" y1="-272.247%" y2="122.754%">
            <stop offset="0%" stop-color="#D6E5FF"/>
            <stop offset="100%" stop-color="#7FC7FF"/>
        </linearGradient>
        <linearGradient id="m" x1="2317.071%" x2="-496.75%" y1="-268.316%" y2="126.686%">
            <stop offset="0%" stop-color="#D6E5FF"/>
            <stop offset="100%" stop-color="#7FC7FF"/>
        </linearGradient>
        <linearGradient id="n" x1="2282.531%" x2="-523.159%" y1="-264.177%" y2="130.822%">
            <stop offset="0%" stop-color="#D6E5FF"/>
            <stop offset="100%" stop-color="#7FC7FF"/>
        </linearGradient>
        <linearGradient id="o" x1="2258.421%" x2="-555.409%" y1="-260.015%" y2="134.987%">
            <stop offset="0%" stop-color="#D6E5FF"/>
            <stop offset="100%" stop-color="#7FC7FF"/>
        </linearGradient>
        <linearGradient id="p" x1="2228.824%" x2="-584.997%" y1="-255.748%" y2="139.149%">
            <stop offset="0%" stop-color="#D6E5FF"/>
            <stop offset="100%" stop-color="#7FC7FF"/>
        </linearGradient>
        <linearGradient id="q" x1="2200.809%" x2="-613.012%" y1="-251.995%" y2="143.007%">
            <stop offset="0%" stop-color="#D6E5FF"/>
            <stop offset="100%" stop-color="#7FC7FF"/>
        </linearGradient>
        <linearGradient id="r" x1="2170.724%" x2="-642.809%" y1="-247.734%" y2="147.264%">
            <stop offset="0%" stop-color="#D6E5FF"/>
            <stop offset="100%" stop-color="#7FC7FF"/>
        </linearGradient>
        <linearGradient id="s" x1="2137.389%" x2="-669.44%" y1="-243.682%" y2="151.316%">
            <stop offset="0%" stop-color="#D6E5FF"/>
            <stop offset="100%" stop-color="#7FC7FF"/>
        </linearGradient>
        <linearGradient id="t" x1="1511.212%" x2="-1302.609%" y1="-155.19%" y2="239.812%">
            <stop offset="0%" stop-color="#D6E5FF"/>
            <stop offset="100%" stop-color="#7FC7FF"/>
        </linearGradient>
        <linearGradient id="u" x1="1479.139%" x2="-1327.397%" y1="-151.069%" y2="243.93%">
            <stop offset="0%" stop-color="#D6E5FF"/>
            <stop offset="100%" stop-color="#7FC7FF"/>
        </linearGradient>
        <linearGradient id="v" x1="1452.706%" x2="-1361.124%" y1="-146.91%" y2="248.092%">
            <stop offset="0%" stop-color="#D6E5FF"/>
            <stop offset="100%" stop-color="#7FC7FF"/>
        </linearGradient>
        <linearGradient id="w" x1="1420.87%" x2="-1385.954%" y1="-142.767%" y2="252.13%">
            <stop offset="0%" stop-color="#D6E5FF"/>
            <stop offset="100%" stop-color="#7FC7FF"/>
        </linearGradient>
        <linearGradient id="x" x1="1393.853%" x2="-1419.976%" y1="-138.648%" y2="256.351%">
            <stop offset="0%" stop-color="#D6E5FF"/>
            <stop offset="100%" stop-color="#7FC7FF"/>
        </linearGradient>
        <linearGradient id="y" x1="1362.185%" x2="-1443.795%" y1="-134.504%" y2="260.392%">
            <stop offset="0%" stop-color="#D6E5FF"/>
            <stop offset="100%" stop-color="#7FC7FF"/>
        </linearGradient>
        <linearGradient id="z" x1="1336.35%" x2="-1477.176%" y1="-130.595%" y2="264.404%">
            <stop offset="0%" stop-color="#D6E5FF"/>
            <stop offset="100%" stop-color="#7FC7FF"/>
        </linearGradient>
        <linearGradient id="A" x1="1306.782%" x2="-1507.038%" y1="-126.362%" y2="268.568%">
            <stop offset="0%" stop-color="#D6E5FF"/>
            <stop offset="100%" stop-color="#7FC7FF"/>
        </linearGradient>
        <linearGradient id="B" x1="1278.835%" x2="-1534.988%" y1="-122.566%" y2="272.432%">
            <stop offset="0%" stop-color="#D6E5FF"/>
            <stop offset="100%" stop-color="#7FC7FF"/>
        </linearGradient>
        <linearGradient id="C" x1="1249.188%" x2="-1564.635%" y1="-118.341%" y2="276.66%">
            <stop offset="0%" stop-color="#D6E5FF"/>
            <stop offset="100%" stop-color="#7FC7FF"/>
        </linearGradient>
        <linearGradient id="D" x1="1217.556%" x2="-1588.974%" y1="-114.266%" y2="280.763%">
            <stop offset="0%" stop-color="#D6E5FF"/>
            <stop offset="100%" stop-color="#7FC7FF"/>
        </linearGradient>
        <linearGradient id="E" x1="554.312%" x2="-2259.215%" y1="-20.807%" y2="374.225%">
            <stop offset="0%" stop-color="#D6E5FF"/>
            <stop offset="100%" stop-color="#7FC7FF"/>
        </linearGradient>
        <linearGradient id="F" x1="524.566%" x2="-2282.263%" y1="-16.713%" y2="378.286%">
            <stop offset="0%" stop-color="#D6E5FF"/>
            <stop offset="100%" stop-color="#7FC7FF"/>
        </linearGradient>
        <linearGradient id="G" x1="495.518%" x2="-2318.306%" y1="-12.542%" y2="382.457%">
            <stop offset="0%" stop-color="#D6E5FF"/>
            <stop offset="100%" stop-color="#7FC7FF"/>
        </linearGradient>
        <linearGradient id="H" x1="467.388%" x2="-2339.439%" y1="-8.673%" y2="386.359%">
            <stop offset="0%" stop-color="#D6E5FF"/>
            <stop offset="100%" stop-color="#7FC7FF"/>
        </linearGradient>
        <linearGradient id="I" x1="438.094%" x2="-2375.432%" y1="-4.486%" y2="390.515%">
            <stop offset="0%" stop-color="#D6E5FF"/>
            <stop offset="100%" stop-color="#7FC7FF"/>
        </linearGradient>
        <linearGradient id="J" x1="408.972%" x2="-2397.008%" y1="-.357%" y2="394.543%">
            <stop offset="0%" stop-color="#D6E5FF"/>
            <stop offset="100%" stop-color="#7FC7FF"/>
        </linearGradient>
        <linearGradient id="K" x1="379.391%" x2="-2434.435%" y1="3.758%" y2="398.789%">
            <stop offset="0%" stop-color="#D6E5FF"/>
            <stop offset="100%" stop-color="#7FC7FF"/>
        </linearGradient>
        <linearGradient id="L" x1="349.665%" x2="-2464.156%" y1="7.978%" y2="402.874%">
            <stop offset="0%" stop-color="#D6E5FF"/>
            <stop offset="100%" stop-color="#7FC7FF"/>
        </linearGradient>
        <linearGradient id="M" x1="321.962%" x2="-2491.868%" y1="11.822%" y2="406.824%">
            <stop offset="0%" stop-color="#D6E5FF"/>
            <stop offset="100%" stop-color="#7FC7FF"/>
        </linearGradient>
        <linearGradient id="N" x1="292.035%" x2="-2521.494%" y1="16.02%" y2="411.019%">
            <stop offset="0%" stop-color="#D6E5FF"/>
            <stop offset="100%" stop-color="#7FC7FF"/>
        </linearGradient>
        <linearGradient id="O" x1="263.995%" x2="-2542.829%" y1="19.89%" y2="414.891%">
            <stop offset="0%" stop-color="#D6E5FF"/>
            <stop offset="100%" stop-color="#7FC7FF"/>
        </linearGradient>
        <linearGradient id="P" x1="0%" y1="50%" y2="50%">
            <stop offset="0%" stop-color="#86BFFF"/>
            <stop offset="100%" stop-color="#56A8FF"/>
        </linearGradient>
        <linearGradient id="Q" x1="0%" y1="49.999%" y2="49.999%">
            <stop offset="0%" stop-color="#D6E5FF"/>
            <stop offset="100%" stop-color="#7FC7FF"/>
        </linearGradient>
        <linearGradient id="R" x1="225.492%" x2="-1.392%" y1="-795.033%" y2="297.459%">
            <stop offset="0%" stop-color="#D6E5FF"/>
            <stop offset="100%" stop-color="#7FC7FF"/>
        </linearGradient>
        <linearGradient id="S" x1="253.935%" x2="27.047%" y1="-931.975%" y2="160.518%">
            <stop offset="0%" stop-color="#D6E5FF"/>
            <stop offset="100%" stop-color="#7FC7FF"/>
        </linearGradient>
        <linearGradient id="T" x1="-14.798%" x2="97.707%" y1="94.881%" y2="17.469%">
            <stop offset="0%" stop-color="#D6E5FF"/>
            <stop offset="100%" stop-color="#7FC7FF"/>
        </linearGradient>
        <linearGradient id="U" x1="0%" y1="50%" y2="50%">
            <stop offset="0%" stop-color="#86BFFF"/>
            <stop offset="100%" stop-color="#56A8FF"/>
        </linearGradient>
        <linearGradient id="V" x1="0%" y1="49.999%" y2="49.999%">
            <stop offset="0%" stop-color="#86BFFF"/>
            <stop offset="100%" stop-color="#56A8FF"/>
        </linearGradient>
        <linearGradient id="W" x1="0%" y1="50%" y2="50%">
            <stop offset="0%" stop-color="#86BFFF"/>
            <stop offset="100%" stop-color="#56A8FF"/>
        </linearGradient>
        <linearGradient id="X" x1="91732.971%" x2="88835.912%" y1="22530.887%" y2="21820.521%">
            <stop offset="0%" stop-color="#6CA8FF"/>
            <stop offset="100%" stop-color="#3183FF"/>
        </linearGradient>
        <linearGradient id="Y" x1="91653.156%" x2="88756.097%" y1="22511.316%" y2="21800.95%">
            <stop offset="0%" stop-color="#6CA8FF"/>
            <stop offset="100%" stop-color="#3183FF"/>
        </linearGradient>
        <linearGradient id="Z" x1="91319.213%" x2="88430.23%" y1="22492.004%" y2="21781.638%">
            <stop offset="0%" stop-color="#6CA8FF"/>
            <stop offset="100%" stop-color="#3183FF"/>
        </linearGradient>
        <linearGradient id="aa" x1="91494.132%" x2="88597.073%" y1="22472.324%" y2="21761.958%">
            <stop offset="0%" stop-color="#6CA8FF"/>
            <stop offset="100%" stop-color="#3183FF"/>
        </linearGradient>
        <linearGradient id="ab" x1="91414.924%" x2="88517.865%" y1="22452.901%" y2="21742.535%">
            <stop offset="0%" stop-color="#6CA8FF"/>
            <stop offset="100%" stop-color="#3183FF"/>
        </linearGradient>
        <linearGradient id="ac" x1="91109.039%" x2="88219.184%" y1="22433.589%" y2="21723.223%">
            <stop offset="0%" stop-color="#6CA8FF"/>
            <stop offset="100%" stop-color="#3183FF"/>
        </linearGradient>
        <linearGradient id="ad" x1="91256.959%" x2="88359.9%" y1="22414.168%" y2="21703.802%">
            <stop offset="0%" stop-color="#6CA8FF"/>
            <stop offset="100%" stop-color="#3183FF"/>
        </linearGradient>
        <linearGradient id="ae" x1="90950.414%" x2="88060.559%" y1="22394.597%" y2="21684.231%">
            <stop offset="0%" stop-color="#6CA8FF"/>
            <stop offset="100%" stop-color="#3183FF"/>
        </linearGradient>
        <linearGradient id="af" x1="91097.935%" x2="88200.876%" y1="22375.176%" y2="21664.81%">
            <stop offset="0%" stop-color="#6CA8FF"/>
            <stop offset="100%" stop-color="#3183FF"/>
        </linearGradient>
        <linearGradient id="ag" x1="90765.572%" x2="87876.586%" y1="22355.862%" y2="21645.496%">
            <stop offset="0%" stop-color="#6CA8FF"/>
            <stop offset="100%" stop-color="#3183FF"/>
        </linearGradient>
        <linearGradient id="ah" x1="90939.965%" x2="88042.906%" y1="22336.441%" y2="21626.075%">
            <stop offset="0%" stop-color="#6CA8FF"/>
            <stop offset="100%" stop-color="#3183FF"/>
        </linearGradient>
        <linearGradient id="ai" x1="92423.927%" x2="89526.868%" y1="22700.303%" y2="21989.937%">
            <stop offset="0%" stop-color="#6CA8FF"/>
            <stop offset="100%" stop-color="#3183FF"/>
        </linearGradient>
        <linearGradient id="aj" x1="92345.138%" x2="89448.082%" y1="22680.992%" y2="21970.626%">
            <stop offset="0%" stop-color="#6CA8FF"/>
            <stop offset="100%" stop-color="#3183FF"/>
        </linearGradient>
        <linearGradient id="ak" x1="92009.27%" x2="89120.284%" y1="22661.68%" y2="21951.314%">
            <stop offset="0%" stop-color="#6CA8FF"/>
            <stop offset="100%" stop-color="#3183FF"/>
        </linearGradient>
        <linearGradient id="al" x1="92186.118%" x2="89289.059%" y1="22642%" y2="21931.634%">
            <stop offset="0%" stop-color="#6CA8FF"/>
            <stop offset="100%" stop-color="#3183FF"/>
        </linearGradient>
        <linearGradient id="am" x1="92106.909%" x2="89209.85%" y1="22622.579%" y2="21912.213%">
            <stop offset="0%" stop-color="#6CA8FF"/>
            <stop offset="100%" stop-color="#3183FF"/>
        </linearGradient>
        <linearGradient id="an" x1="91799.304%" x2="88909.449%" y1="22603.267%" y2="21892.901%">
            <stop offset="0%" stop-color="#6CA8FF"/>
            <stop offset="100%" stop-color="#3183FF"/>
        </linearGradient>
        <linearGradient id="ao" x1="91948.941%" x2="89051.882%" y1="22583.844%" y2="21873.478%">
            <stop offset="0%" stop-color="#6CA8FF"/>
            <stop offset="100%" stop-color="#3183FF"/>
        </linearGradient>
        <linearGradient id="ap" x1="91640.678%" x2="88750.824%" y1="22564.273%" y2="21853.907%">
            <stop offset="0%" stop-color="#6CA8FF"/>
            <stop offset="100%" stop-color="#3183FF"/>
        </linearGradient>
        <linearGradient id="aq" x1="91789.918%" x2="88892.859%" y1="22544.852%" y2="21834.486%">
            <stop offset="0%" stop-color="#6CA8FF"/>
            <stop offset="100%" stop-color="#3183FF"/>
        </linearGradient>
        <linearGradient id="ar" x1="91455.6%" x2="88566.614%" y1="22525.539%" y2="21815.173%">
            <stop offset="0%" stop-color="#6CA8FF"/>
            <stop offset="100%" stop-color="#3183FF"/>
        </linearGradient>
        <linearGradient id="as" x1="91631.953%" x2="88734.894%" y1="22506.118%" y2="21795.752%">
            <stop offset="0%" stop-color="#6CA8FF"/>
            <stop offset="100%" stop-color="#3183FF"/>
        </linearGradient>
        <linearGradient id="at" x1="93142.168%" x2="90245.112%" y1="22876.451%" y2="22166.086%">
            <stop offset="0%" stop-color="#6CA8FF"/>
            <stop offset="100%" stop-color="#3183FF"/>
        </linearGradient>
        <linearGradient id="au" x1="93063.497%" x2="90166.438%" y1="22857.135%" y2="22146.769%">
            <stop offset="0%" stop-color="#6CA8FF"/>
            <stop offset="100%" stop-color="#3183FF"/>
        </linearGradient>
        <linearGradient id="av" x1="92724.574%" x2="89835.588%" y1="22837.564%" y2="22127.198%">
            <stop offset="0%" stop-color="#6CA8FF"/>
            <stop offset="100%" stop-color="#3183FF"/>
        </linearGradient>
        <linearGradient id="aw" x1="92904.473%" x2="90007.415%" y1="22818.143%" y2="22107.777%">
            <stop offset="0%" stop-color="#6CA8FF"/>
            <stop offset="100%" stop-color="#3183FF"/>
        </linearGradient>
        <linearGradient id="ax" x1="92825.265%" x2="89928.206%" y1="22798.721%" y2="22088.356%">
            <stop offset="0%" stop-color="#6CA8FF"/>
            <stop offset="100%" stop-color="#3183FF"/>
        </linearGradient>
        <linearGradient id="ay" x1="92515.873%" x2="89626.019%" y1="22773.524%" y2="22063.342%">
            <stop offset="0%" stop-color="#6CA8FF"/>
            <stop offset="100%" stop-color="#3183FF"/>
        </linearGradient>
        <linearGradient id="az" x1="92666.241%" x2="89769.182%" y1="22759.728%" y2="22049.362%">
            <stop offset="0%" stop-color="#6CA8FF"/>
            <stop offset="100%" stop-color="#3183FF"/>
        </linearGradient>
        <linearGradient id="aA" x1="92357.245%" x2="89467.39%" y1="22740.415%" y2="22030.049%">
            <stop offset="0%" stop-color="#6CA8FF"/>
            <stop offset="100%" stop-color="#3183FF"/>
        </linearGradient>
        <linearGradient id="aB" x1="92508.273%" x2="89611.215%" y1="22720.994%" y2="22010.628%">
            <stop offset="0%" stop-color="#6CA8FF"/>
            <stop offset="100%" stop-color="#3183FF"/>
        </linearGradient>
        <linearGradient id="aC" x1="92170.904%" x2="89281.918%" y1="22701.423%" y2="21991.057%">
            <stop offset="0%" stop-color="#6CA8FF"/>
            <stop offset="100%" stop-color="#3183FF"/>
        </linearGradient>
        <linearGradient id="aD" x1="92349.253%" x2="89452.194%" y1="22682.002%" y2="21971.636%">
            <stop offset="0%" stop-color="#6CA8FF"/>
            <stop offset="100%" stop-color="#3183FF"/>
        </linearGradient>
        <linearGradient id="aE" x1="0%" y1="50%" y2="50%">
            <stop offset="0%" stop-color="#86BFFF"/>
            <stop offset="100%" stop-color="#56A8FF"/>
        </linearGradient>
        <linearGradient id="aF" x1="20.125%" x2="83.013%" y1="96.672%" y2="-.973%">
            <stop offset="0%" stop-color="#D6E5FF"/>
            <stop offset="100%" stop-color="#7FC7FF"/>
        </linearGradient>
        <linearGradient id="aG" x1="0%" y1="50%" y2="50%">
            <stop offset="0%" stop-color="#FCFCFE"/>
            <stop offset="97%" stop-color="#C3DCFF"/>
        </linearGradient>
        <linearGradient id="aH" x1="0%" y1="50%" y2="50%">
            <stop offset="0%" stop-color="#D6E5FF"/>
            <stop offset="100%" stop-color="#7FC7FF"/>
        </linearGradient>
        <linearGradient id="aI" x1="0%" y1="50%" y2="50%">
            <stop offset="0%" stop-color="#86BFFF"/>
            <stop offset="100%" stop-color="#56A8FF"/>
        </linearGradient>
        <linearGradient id="aJ" x1="0%" y1="49.999%" y2="49.999%">
            <stop offset="0%" stop-color="#86BFFF"/>
            <stop offset="100%" stop-color="#56A8FF"/>
        </linearGradient>
        <linearGradient id="aK" x1="0%" y1="49.999%" y2="49.999%">
            <stop offset="0%" stop-color="#86BFFF"/>
            <stop offset="100%" stop-color="#56A8FF"/>
        </linearGradient>
        <linearGradient id="aL" x1="91319.213%" x2="88430.227%" y1="22492.004%" y2="21781.638%">
            <stop offset="0%" stop-color="#6CA8FF"/>
            <stop offset="100%" stop-color="#3183FF"/>
        </linearGradient>
        <linearGradient id="aM" x1="91494.135%" x2="88597.076%" y1="22472.324%" y2="21761.958%">
            <stop offset="0%" stop-color="#6CA8FF"/>
            <stop offset="100%" stop-color="#3183FF"/>
        </linearGradient>
        <linearGradient id="aN" x1="91097.932%" x2="88200.874%" y1="22375.176%" y2="21664.81%">
            <stop offset="0%" stop-color="#6CA8FF"/>
            <stop offset="100%" stop-color="#3183FF"/>
        </linearGradient>
        <linearGradient id="aO" x1="90765.546%" x2="87876.56%" y1="22355.863%" y2="21645.497%">
            <stop offset="0%" stop-color="#6CA8FF"/>
            <stop offset="100%" stop-color="#3183FF"/>
        </linearGradient>
        <linearGradient id="aP" x1="92423.9%" x2="89526.841%" y1="22700.305%" y2="21989.939%">
            <stop offset="0%" stop-color="#6CA8FF"/>
            <stop offset="100%" stop-color="#3183FF"/>
        </linearGradient>
        <linearGradient id="aQ" x1="92345.141%" x2="89448.082%" y1="22680.992%" y2="21970.626%">
            <stop offset="0%" stop-color="#6CA8FF"/>
            <stop offset="100%" stop-color="#3183FF"/>
        </linearGradient>
        <linearGradient id="aR" x1="91948.938%" x2="89051.879%" y1="22583.844%" y2="21873.478%">
            <stop offset="0%" stop-color="#6CA8FF"/>
            <stop offset="100%" stop-color="#3183FF"/>
        </linearGradient>
        <linearGradient id="aS" x1="91640.676%" x2="88750.821%" y1="22564.273%" y2="21853.907%">
            <stop offset="0%" stop-color="#6CA8FF"/>
            <stop offset="100%" stop-color="#3183FF"/>
        </linearGradient>
        <linearGradient id="aT" x1="93142.256%" x2="90245.197%" y1="22876.447%" y2="22166.081%">
            <stop offset="0%" stop-color="#6CA8FF"/>
            <stop offset="100%" stop-color="#3183FF"/>
        </linearGradient>
        <linearGradient id="aU" x1="92904.477%" x2="90007.418%" y1="22818.143%" y2="22107.777%">
            <stop offset="0%" stop-color="#6CA8FF"/>
            <stop offset="100%" stop-color="#3183FF"/>
        </linearGradient>
        <linearGradient id="aV" x1="92515.873%" x2="89626.021%" y1="22773.524%" y2="22063.342%">
            <stop offset="0%" stop-color="#6CA8FF"/>
            <stop offset="100%" stop-color="#3183FF"/>
        </linearGradient>
        <linearGradient id="aW" x1="92349.253%" x2="89452.197%" y1="22682.002%" y2="21971.636%">
            <stop offset="0%" stop-color="#6CA8FF"/>
            <stop offset="100%" stop-color="#3183FF"/>
        </linearGradient>
    </defs>
    <g fill="none" fill-rule="nonzero">
        <path fill="url(#a)" d="M318.84 124.762l.02 11.981-157.642 88.197-.12-12.723z"/>
        <path fill="url(#b)" d="M161.178 225L.14 137.204v-10.74l161.038 85.633z"/>
        <path fill="url(#c)" d="M159.96 46.402L.14 126.465l161.078 85.732 157.562-87.355z"/>
        <path fill="url(#d)" d="M238.361 18.533L191.46 45.82v84.771l46.901-26.627z"/>
        <path fill="url(#e)" d="M191.68 45.801l46.681-27.268L195.934.14l-46.841 24.303z"/>
        <path fill="url(#f)" d="M148.993 24.403v84.811l42.527 21.358v-84.81z"/>
        <path fill="url(#f)" d="M187.505 122.057l-20.015-9.797-.06-9.618 20.015 9.798z" opacity=".6"/>
        <path fill="url(#g)" d="M187.505 108.914l-20.015-9.798-.06-9.617 20.015 9.798z" opacity=".6"/>
        <path fill="url(#h)" d="M187.505 95.27l-20.015-9.798-.06-9.597 20.015 9.777z" opacity=".6"/>
        <path fill="url(#i)" d="M169.128 111.618c-.18 0-.32-.14-.32-.32l-.04-5.93c0-.181.14-.321.32-.321s.32.14.32.32l.04 5.93c0 .161-.14.301-.32.321z"/>
        <path fill="url(#j)" d="M170.766 112.42c-.18 0-.32-.14-.32-.32l-.04-5.931c0-.18.14-.32.32-.32s.32.14.32.32l.04 5.93c.02.16-.14.32-.32.32z"/>
        <path fill="url(#k)" d="M172.424 113.221c-.18 0-.32-.14-.32-.32l-.04-5.93c0-.181.14-.321.32-.321s.32.14.32.32l.04 5.93c0 .181-.14.321-.32.321z"/>
        <path fill="url(#l)" d="M174.062 114.023c-.18 0-.32-.14-.32-.32l-.04-5.931c0-.18.14-.321.32-.321s.32.14.32.32l.04 5.931c.02.18-.14.32-.32.32z"/>
        <path fill="url(#m)" d="M175.72 114.844c-.18 0-.32-.14-.32-.32l-.04-5.93c0-.181.14-.322.32-.322s.32.14.32.321l.04 5.93c0 .16-.14.321-.32.321z"/>
        <path fill="url(#n)" d="M177.358 115.646c-.18 0-.32-.14-.32-.321l-.04-5.93c0-.18.14-.321.32-.321s.32.14.32.32l.04 5.931c.02.18-.12.32-.32.32z"/>
        <path fill="url(#o)" d="M179.016 116.447c-.18 0-.32-.14-.32-.32l-.04-5.931c0-.18.14-.32.32-.32s.32.14.32.32l.04 5.93c0 .18-.14.321-.32.321z"/>
        <path fill="url(#p)" d="M180.673 117.248c-.18 0-.32-.14-.32-.32l-.04-5.93c0-.181.14-.321.32-.321s.32.14.32.32l.04 5.93c0 .181-.14.341-.32.321z"/>
        <path fill="url(#q)" d="M182.311 118.07c-.18 0-.32-.14-.32-.32l-.04-5.931c0-.18.14-.32.32-.32s.32.14.32.32l.04 5.93c0 .16-.14.32-.32.32z"/>
        <path fill="url(#r)" d="M183.97 118.871c-.18 0-.32-.14-.32-.32l-.04-5.93c0-.181.14-.321.32-.321s.319.14.319.32l.04 5.93c0 .181-.14.321-.32.321z"/>
        <path fill="url(#s)" d="M185.607 119.673c-.18 0-.32-.14-.32-.32l-.04-5.931c0-.18.14-.32.32-.32s.32.14.32.32l.04 5.93c.02.18-.14.32-.32.32z"/>
        <path fill="url(#t)" d="M169.128 98.475c-.18 0-.32-.14-.32-.32l-.04-5.931c0-.18.14-.32.32-.32s.32.14.32.32l.04 5.93c0 .16-.14.321-.32.321z"/>
        <path fill="url(#u)" d="M170.766 99.276c-.18 0-.32-.14-.32-.32l-.04-5.93c0-.18.14-.321.32-.321s.32.14.32.32l.04 5.93c.02.181-.14.321-.32.321z"/>
        <path fill="url(#v)" d="M172.424 100.078c-.18 0-.32-.14-.32-.32l-.04-5.931c0-.18.14-.32.32-.32s.32.14.32.32l.04 5.93c0 .18-.14.32-.32.32z"/>
        <path fill="url(#w)" d="M174.062 100.88c-.18 0-.32-.14-.32-.321l-.04-5.93c0-.181.14-.321.32-.321s.32.14.32.32l.04 5.93c.02.181-.14.341-.32.321z"/>
        <path fill="url(#x)" d="M175.72 101.68c-.18 0-.32-.14-.32-.32l-.04-5.93c0-.18.14-.32.32-.32s.32.14.32.32l.04 5.93c0 .18-.14.32-.32.32z"/>
        <path fill="url(#y)" d="M177.358 102.482c-.18 0-.32-.14-.32-.32l-.04-5.93c0-.181.14-.321.32-.321s.32.14.32.32l.04 5.93c.02.18-.12.341-.32.321z"/>
        <path fill="url(#z)" d="M179.016 103.304c-.18 0-.32-.14-.32-.32l-.04-5.931c0-.18.14-.321.32-.321s.32.14.32.32l.04 5.931c0 .18-.14.32-.32.32z"/>
        <path fill="url(#A)" d="M180.673 104.105c-.18 0-.32-.14-.32-.32l-.04-5.931c0-.18.14-.32.32-.32s.32.14.32.32l.04 5.93c0 .18-.14.341-.32.321z"/>
        <path fill="url(#B)" d="M182.311 104.927c-.18 0-.32-.14-.32-.321l-.04-5.93c0-.18.14-.321.32-.321s.32.14.32.32l.04 5.931c0 .16-.14.32-.32.32z"/>
        <path fill="url(#C)" d="M183.97 105.728c-.18 0-.32-.14-.32-.32l-.04-5.931c0-.18.14-.32.32-.32s.319.14.319.32l.04 5.93c0 .18-.14.321-.32.321z"/>
        <path fill="url(#D)" d="M185.607 106.53c-.18 0-.32-.14-.32-.321l-.04-5.93c0-.181.14-.321.32-.321s.32.14.32.32l.04 5.93c.02.181-.14.321-.32.321z"/>
        <path fill="url(#E)" d="M169.128 84.83c-.18 0-.32-.14-.32-.32l-.04-5.93c0-.18.14-.32.32-.32s.32.14.32.32l.04 5.93c0 .18-.14.32-.32.32z"/>
        <path fill="url(#F)" d="M170.766 85.632c-.18 0-.32-.14-.32-.32l-.04-5.93c0-.181.14-.321.32-.321s.32.14.32.32l.04 5.93c.02.181-.14.321-.32.321z"/>
        <path fill="url(#G)" d="M172.424 86.434c-.18 0-.32-.14-.32-.32l-.04-5.931c0-.18.14-.321.32-.321s.32.14.32.32l.04 5.931c0 .18-.14.32-.32.32z"/>
        <path fill="url(#H)" d="M174.062 87.255c-.18 0-.32-.14-.32-.32l-.04-5.931c0-.18.14-.32.32-.32s.32.14.32.32l.04 5.93c.02.18-.14.321-.32.321z"/>
        <path fill="url(#I)" d="M175.72 88.057c-.18 0-.32-.14-.32-.321l-.04-5.93c0-.18.14-.321.32-.321s.32.14.32.32l.04 5.931c0 .18-.14.32-.32.32z"/>
        <path fill="url(#J)" d="M177.358 88.858c-.18 0-.32-.14-.32-.32l-.04-5.931c0-.18.14-.32.32-.32s.32.14.32.32l.04 5.93c.02.18-.12.341-.32.321z"/>
        <path fill="url(#K)" d="M179.016 89.66c-.18 0-.32-.14-.32-.321l-.04-5.93c0-.181.14-.321.32-.321s.32.14.32.32l.04 5.93c0 .181-.14.321-.32.321z"/>
        <path fill="url(#L)" d="M180.673 90.46c-.18 0-.32-.14-.32-.32l-.04-5.93c0-.18.14-.32.32-.32s.32.14.32.32l.04 5.93c0 .18-.14.34-.32.32z"/>
        <path fill="url(#M)" d="M182.311 91.282c-.18 0-.32-.14-.32-.32l-.04-5.93c0-.181.14-.321.32-.321s.32.14.32.32l.04 5.93c0 .181-.14.321-.32.321z"/>
        <path fill="url(#N)" d="M183.97 92.084c-.18 0-.32-.14-.32-.32l-.04-5.931c0-.18.14-.321.32-.321s.319.14.319.32l.04 5.931c0 .18-.14.32-.32.32z"/>
        <path fill="url(#O)" d="M185.607 92.905c-.18 0-.32-.14-.32-.32l-.04-5.93c0-.181.14-.322.32-.322s.32.14.32.321l.04 5.93c.02.16-.14.321-.32.321z"/>
        <path fill="url(#P)" d="M187.505 61.43l-13.363-6.512-.06-9.617 13.363 6.511z"/>
        <path fill="#86BFFF" d="M172.324 46.142c0-.581-.48-1.322-1.059-1.663-.579-.34-1.058-.14-1.058.44 0 .582.479 1.323 1.058 1.664.58.34 1.059.14 1.059-.441zM172.324 49.588c0-.58-.48-1.322-1.059-1.663-.579-.34-1.058-.14-1.058.441s.479 1.322 1.058 1.663c.58.34 1.059.16 1.059-.44z"/>
        <path fill="url(#Q)" d="M187.006 75.053l-13.344-6.491-.06-9.617 13.344 6.511z" opacity=".6"/>
        <path fill="url(#R)" d="M171.825 59.786c0-.58-.48-1.322-1.06-1.663-.578-.34-1.058-.14-1.058.441s.48 1.322 1.059 1.663c.58.34 1.059.14 1.059-.44z"/>
        <path fill="url(#S)" d="M171.825 63.232c0-.58-.48-1.322-1.06-1.663-.578-.34-1.058-.14-1.058.441s.48 1.323 1.059 1.663c.58.34 1.059.14 1.059-.44z"/>
        <path fill="url(#T)" d="M135.07 37.266L88.19 64.555v84.77l46.88-26.627z"/>
        <path fill="url(#e)" d="M88.39 64.535l46.68-27.269-42.406-18.392-46.861 24.303z"/>
        <path fill="url(#f)" d="M45.703 43.157v84.79l42.546 21.358v-84.79z"/>
        <path fill="url(#U)" d="M84.214 140.79l-19.995-9.797-.06-9.617 20.015 9.797z"/>
        <path fill="url(#V)" d="M84.214 127.647L64.22 117.85l-.06-9.618 20.015 9.798z"/>
        <path fill="url(#W)" d="M84.214 114.003l-19.995-9.798-.06-9.597 20.015 9.778z"/>
        <path fill="url(#X)" d="M65.857 130.332c-.18 0-.32-.14-.32-.32l-.04-5.931c0-.18.14-.321.32-.321s.32.14.32.32l.04 5.931c0 .18-.14.32-.32.32z"/>
        <path fill="url(#Y)" d="M67.495 131.153c-.18 0-.32-.14-.32-.32l-.04-5.931c0-.18.14-.32.32-.32s.32.14.32.32l.04 5.93c0 .18-.14.321-.32.321z"/>
        <path fill="url(#Z)" d="M69.133 131.955c-.18 0-.32-.14-.32-.321l-.04-5.93c0-.18.14-.321.32-.321s.32.14.32.32l.04 5.931c.02.18-.12.32-.32.32z"/>
        <path fill="url(#aa)" d="M70.791 132.776c-.18 0-.32-.14-.32-.32l-.04-5.931c0-.18.14-.32.32-.32s.32.14.32.32l.04 5.93c0 .16-.14.321-.32.321z"/>
        <path fill="url(#ab)" d="M72.45 133.577c-.18 0-.32-.14-.32-.32l-.04-5.93c0-.181.14-.321.32-.321.179 0 .319.14.319.32l.04 5.93c0 .161-.14.321-.32.321z"/>
        <path fill="url(#ac)" d="M74.087 134.379c-.18 0-.32-.14-.32-.32l-.04-5.931c0-.18.14-.32.32-.32s.32.14.32.32l.04 5.93c.02.18-.14.32-.32.32z"/>
        <path fill="url(#ad)" d="M75.745 135.18c-.18 0-.32-.14-.32-.32l-.04-5.93c0-.181.14-.321.32-.321s.32.14.32.32l.04 5.93c0 .181-.14.321-.32.321z"/>
        <path fill="url(#ae)" d="M77.383 136.002c-.18 0-.32-.14-.32-.32l-.04-5.931c0-.18.14-.32.32-.32s.32.14.32.32l.04 5.93c.02.16-.14.32-.32.32z"/>
        <path fill="url(#af)" d="M79.04 136.803c-.179 0-.319-.14-.319-.32l-.04-5.93c0-.181.14-.321.32-.321s.32.14.32.32l.04 5.93c0 .16-.14.321-.32.321z"/>
        <path fill="url(#ag)" d="M80.679 137.605c-.18 0-.32-.14-.32-.32l-.04-5.931c0-.18.14-.321.32-.321s.32.14.32.32l.04 5.931c.02.18-.12.32-.32.32z"/>
        <path fill="url(#ah)" d="M82.337 138.406c-.18 0-.32-.14-.32-.32l-.04-5.931c0-.18.14-.32.32-.32s.32.14.32.32l.04 5.93c0 .18-.14.321-.32.321z"/>
        <path fill="url(#ai)" d="M65.857 117.208c-.18 0-.32-.14-.32-.32l-.04-5.93c0-.181.14-.321.32-.321s.32.14.32.32l.04 5.93c0 .161-.14.321-.32.321z"/>
        <path fill="url(#aj)" d="M67.495 118.01c-.18 0-.32-.14-.32-.32l-.04-5.931c0-.18.14-.32.32-.32s.32.14.32.32l.04 5.93c0 .18-.14.32-.32.32z"/>
        <path fill="url(#ak)" d="M69.133 118.811c-.18 0-.32-.14-.32-.32l-.04-5.93c0-.181.14-.321.32-.321s.32.14.32.32l.04 5.93c.02.181-.12.321-.32.321z"/>
        <path fill="url(#al)" d="M70.791 119.633c-.18 0-.32-.14-.32-.32l-.04-5.931c0-.18.14-.321.32-.321s.32.14.32.32l.04 5.931c0 .16-.14.32-.32.32z"/>
        <path fill="url(#am)" d="M72.45 120.434c-.18 0-.32-.14-.32-.32l-.04-5.931c0-.18.14-.32.32-.32.179 0 .319.14.319.32l.04 5.93c0 .16-.14.321-.32.321z"/>
        <path fill="url(#an)" d="M74.087 121.236c-.18 0-.32-.14-.32-.321l-.04-5.93c0-.18.14-.321.32-.321s.32.14.32.32l.04 5.931c.02.18-.14.32-.32.32z"/>
        <path fill="url(#ao)" d="M75.745 122.037c-.18 0-.32-.14-.32-.32l-.04-5.931c0-.18.14-.32.32-.32s.32.14.32.32l.04 5.93c0 .18-.14.321-.32.321z"/>
        <path fill="url(#ap)" d="M77.383 122.858c-.18 0-.32-.14-.32-.32l-.04-5.93c0-.181.14-.321.32-.321s.32.14.32.32l.04 5.93c.02.161-.14.321-.32.321z"/>
        <path fill="url(#aq)" d="M79.04 123.66c-.179 0-.319-.14-.319-.32l-.04-5.931c0-.18.14-.32.32-.32s.32.14.32.32l.04 5.93c0 .16-.14.32-.32.32z"/>
        <path fill="url(#ar)" d="M80.679 124.461c-.18 0-.32-.14-.32-.32l-.04-5.93c0-.181.14-.321.32-.321s.32.14.32.32l.04 5.93c.02.181-.12.321-.32.321z"/>
        <path fill="url(#as)" d="M82.337 125.263c-.18 0-.32-.14-.32-.32l-.04-5.931c0-.18.14-.321.32-.321s.32.14.32.32l.04 5.931c0 .18-.14.32-.32.32z"/>
        <path fill="url(#at)" d="M65.857 103.564c-.18 0-.32-.14-.32-.32l-.04-5.931c0-.18.14-.32.32-.32s.32.14.32.32l.04 5.93c0 .18-.14.321-.32.321z"/>
        <path fill="url(#au)" d="M67.495 104.366c-.18 0-.32-.14-.32-.321l-.04-5.93c0-.18.14-.321.32-.321s.32.14.32.32l.04 5.931c0 .18-.14.32-.32.32z"/>
        <path fill="url(#av)" d="M69.133 105.187c-.18 0-.32-.14-.32-.32l-.04-5.931c0-.18.14-.32.32-.32s.32.14.32.32l.04 5.93c.02.16-.12.321-.32.321z"/>
        <path fill="url(#aw)" d="M70.791 105.988c-.18 0-.32-.14-.32-.32l-.04-5.93c0-.181.14-.321.32-.321s.32.14.32.32l.04 5.93c0 .181-.14.321-.32.321z"/>
        <path fill="url(#ax)" d="M72.45 106.79c-.18 0-.32-.14-.32-.32l-.04-5.931c0-.18.14-.32.32-.32.179 0 .319.14.319.32l.04 5.93c0 .18-.14.32-.32.32z"/>
        <path fill="url(#ay)" d="M74.087 107.591c-.18 0-.32-.14-.32-.32l-.04-5.93c0-.181.14-.321.32-.321s.32.14.32.32l.04 5.93c.02.181-.14.341-.32.321z"/>
        <path fill="url(#az)" d="M75.745 108.413c-.18 0-.32-.14-.32-.32l-.04-5.931c0-.18.14-.32.32-.32s.32.14.32.32l.04 5.93c0 .16-.14.32-.32.32z"/>
        <path fill="url(#aA)" d="M77.383 109.214c-.18 0-.32-.14-.32-.32l-.04-5.931c0-.18.14-.32.32-.32s.32.14.32.32l.04 5.93c.02.18-.14.321-.32.321z"/>
        <path fill="url(#aB)" d="M79.04 110.016c-.179 0-.319-.14-.319-.321l-.04-5.93c0-.18.14-.321.32-.321s.32.14.32.32l.04 5.931c0 .18-.14.32-.32.32z"/>
        <path fill="url(#aC)" d="M80.679 110.837c-.18 0-.32-.14-.32-.32l-.04-5.931c0-.18.14-.32.32-.32s.32.14.32.32l.04 5.93c.02.16-.12.321-.32.321z"/>
        <path fill="url(#aD)" d="M82.337 111.638c-.18 0-.32-.14-.32-.32l-.04-5.93c0-.181.14-.321.32-.321s.32.14.32.32l.04 5.93c0 .161-.14.321-.32.321z"/>
        <path fill="url(#aE)" d="M84.214 80.163L70.871 73.65l-.06-9.597 13.363 6.491z"/>
        <path fill="#86BFFF" d="M69.053 64.875c0-.58-.479-1.322-1.058-1.663-.58-.34-1.059-.14-1.059.441s.48 1.323 1.059 1.663c.579.34 1.058.16 1.058-.44zM69.053 68.341c0-.58-.479-1.322-1.058-1.662-.58-.341-1.059-.14-1.059.44 0 .581.48 1.323 1.059 1.663.579.34 1.058.14 1.058-.44z"/>
        <path fill="url(#aE)" d="M83.735 93.787l-13.363-6.492-.06-9.617 13.363 6.512z"/>
        <path fill="#86BFFF" d="M68.554 78.52c0-.581-.48-1.323-1.059-1.663-.579-.341-1.058-.14-1.058.44 0 .581.48 1.323 1.058 1.663.58.341 1.059.14 1.059-.44zM68.554 81.966c0-.581-.48-1.323-1.059-1.663-.579-.34-1.058-.14-1.058.44 0 .582.48 1.323 1.058 1.664.58.34 1.059.14 1.059-.441z"/>
        <path fill="url(#aF)" d="M202.067 71.447l-46.882 27.268v84.791l46.882-26.627z"/>
        <path fill="url(#aG)" d="M155.385 98.715l46.682-27.268-42.427-18.413-46.841 24.324z"/>
        <path fill="url(#aH)" d="M112.699 77.317v84.811l42.546 21.358v-84.81z"/>
        <path fill="url(#aI)" d="M151.21 174.951l-20.015-9.777-.04-9.617 19.995 9.797z"/>
        <path fill="url(#aJ)" d="M151.21 161.808l-20.015-9.778-.04-9.617 19.995 9.798z"/>
        <path fill="url(#V)" d="M151.21 148.183l-20.015-9.797-.04-9.617 19.995 9.797z"/>
        <path fill="url(#aK)" d="M151.21 114.323l-13.343-6.491-.06-9.617 13.343 6.511z"/>
        <path fill="#86BFFF" d="M136.03 99.056c0-.58-.48-1.322-1.06-1.663-.579-.34-1.058-.14-1.058.44 0 .582.48 1.323 1.059 1.664.579.34 1.058.14 1.058-.44zM136.03 102.502c0-.58-.48-1.322-1.06-1.663-.579-.34-1.058-.14-1.058.441s.48 1.322 1.059 1.663c.579.34 1.058.14 1.058-.44z"/>
        <path fill="url(#U)" d="M150.731 127.967l-13.363-6.511-.06-9.597 13.363 6.491z"/>
        <path fill="#86BFFF" d="M135.53 112.7c0-.58-.48-1.322-1.059-1.663-.579-.34-1.058-.14-1.058.441s.48 1.323 1.058 1.663c.58.34 1.06.14 1.06-.44zM135.53 116.146c0-.58-.48-1.322-1.059-1.662-.579-.341-1.058-.14-1.058.44 0 .581.48 1.323 1.058 1.663.58.34 1.06.14 1.06-.44z"/>
        <path fill="url(#X)" d="M132.973 164.392c-.18 0-.32-.14-.32-.32l-.04-5.93c0-.181.14-.321.32-.321s.32.14.32.32l.04 5.93c0 .181-.14.321-.32.321z"/>
        <path fill="url(#Y)" d="M134.611 165.214c-.18 0-.32-.14-.32-.32l-.04-5.931c0-.18.14-.321.32-.321s.32.14.32.32l.04 5.931c0 .18-.14.32-.32.32z"/>
        <path fill="url(#aL)" d="M136.25 166.015c-.18 0-.32-.14-.32-.32l-.04-5.931c0-.18.14-.32.32-.32.179 0 .319.14.319.32l.04 5.93c.02.18-.12.321-.32.321z"/>
        <path fill="url(#aM)" d="M137.907 166.837c-.18 0-.32-.14-.32-.321l-.04-5.93c0-.18.14-.321.32-.321s.32.14.32.32l.04 5.931c0 .16-.14.32-.32.32z"/>
        <path fill="url(#ab)" d="M139.565 167.638c-.18 0-.32-.14-.32-.32l-.04-5.931c0-.18.14-.32.32-.32s.32.14.32.32l.04 5.93c0 .16-.14.321-.32.321z"/>
        <path fill="url(#ac)" d="M141.203 168.44c-.18 0-.32-.14-.32-.321l-.04-5.93c0-.181.14-.321.32-.321s.32.14.32.32l.04 5.93c.02.181-.14.321-.32.321z"/>
        <path fill="url(#ad)" d="M142.86 169.24c-.179 0-.319-.14-.319-.32l-.04-5.93c0-.18.14-.32.32-.32s.32.14.32.32l.04 5.93c0 .18-.14.32-.32.32z"/>
        <path fill="url(#ae)" d="M144.499 170.062c-.18 0-.32-.14-.32-.32l-.04-5.93c0-.181.14-.321.32-.321s.32.14.32.32l.04 5.93c.02.161-.14.321-.32.321z"/>
        <path fill="url(#aN)" d="M146.157 170.864c-.18 0-.32-.14-.32-.32l-.04-5.931c0-.18.14-.32.32-.32s.32.14.32.32l.04 5.93c0 .16-.14.32-.32.32z"/>
        <path fill="url(#aO)" d="M147.795 171.665c-.18 0-.32-.14-.32-.32l-.04-5.93c0-.181.14-.321.32-.321s.32.14.32.32l.04 5.93c.02.18-.12.321-.32.321z"/>
        <path fill="url(#ah)" d="M149.453 172.467c-.18 0-.32-.14-.32-.321l-.04-5.93c0-.18.14-.321.32-.321s.32.14.32.32l.04 5.931c0 .18-.14.32-.32.32z"/>
        <path fill="url(#aP)" d="M132.973 151.269c-.18 0-.32-.14-.32-.32l-.04-5.931c0-.18.14-.32.32-.32s.32.14.32.32l.04 5.93c0 .16-.14.32-.32.32z"/>
        <path fill="url(#aQ)" d="M134.611 152.07c-.18 0-.32-.14-.32-.32l-.04-5.93c0-.181.14-.321.32-.321s.32.14.32.32l.04 5.93c0 .181-.14.321-.32.321z"/>
        <path fill="url(#ak)" d="M136.25 152.872c-.18 0-.32-.14-.32-.32l-.04-5.931c0-.18.14-.32.32-.32.179 0 .319.14.319.32l.04 5.93c.02.18-.12.32-.32.32z"/>
        <path fill="url(#al)" d="M137.907 153.693c-.18 0-.32-.14-.32-.32l-.04-5.93c0-.181.14-.321.32-.321s.32.14.32.32l.04 5.93c0 .16-.14.321-.32.321z"/>
        <path fill="url(#am)" d="M139.565 154.495c-.18 0-.32-.14-.32-.32l-.04-5.931c0-.18.14-.321.32-.321s.32.14.32.32l.04 5.931c0 .16-.14.32-.32.32z"/>
        <path fill="url(#an)" d="M141.203 155.296c-.18 0-.32-.14-.32-.32l-.04-5.931c0-.18.14-.32.32-.32s.32.14.32.32l.04 5.93c.02.18-.14.321-.32.321z"/>
        <path fill="url(#aR)" d="M142.86 156.098c-.179 0-.319-.14-.319-.321l-.04-5.93c0-.18.14-.321.32-.321s.32.14.32.32l.04 5.93c0 .181-.14.322-.32.322z"/>
        <path fill="url(#aS)" d="M144.499 156.919c-.18 0-.32-.14-.32-.32l-.04-5.931c0-.18.14-.32.32-.32s.32.14.32.32l.04 5.93c.02.16-.14.321-.32.321z"/>
        <path fill="url(#aq)" d="M146.157 157.72c-.18 0-.32-.14-.32-.32l-.04-5.93c0-.181.14-.321.32-.321s.32.14.32.32l.04 5.93c0 .161-.14.321-.32.321z"/>
        <path fill="url(#ar)" d="M147.795 158.522c-.18 0-.32-.14-.32-.32l-.04-5.931c0-.18.14-.32.32-.32s.32.14.32.32l.04 5.93c.02.18-.12.32-.32.32z"/>
        <path fill="url(#as)" d="M149.453 159.323c-.18 0-.32-.14-.32-.32l-.04-5.93c0-.181.14-.321.32-.321s.32.14.32.32l.04 5.93c0 .181-.14.321-.32.321z"/>
        <path fill="url(#aT)" d="M132.973 137.625c-.18 0-.32-.14-.32-.32l-.04-5.931c0-.18.14-.321.32-.321s.32.14.32.32l.04 5.931c0 .18-.14.32-.32.32z"/>
        <path fill="url(#au)" d="M134.611 138.426c-.18 0-.32-.14-.32-.32l-.04-5.931c0-.18.14-.32.32-.32s.32.14.32.32l.04 5.93c0 .18-.14.321-.32.321z"/>
        <path fill="url(#av)" d="M136.25 139.248c-.18 0-.32-.14-.32-.321l-.04-5.93c0-.18.14-.321.32-.321.179 0 .319.14.319.32l.04 5.931c.02.16-.12.32-.32.32z"/>
        <path fill="url(#aU)" d="M137.907 140.049c-.18 0-.32-.14-.32-.32l-.04-5.931c0-.18.14-.32.32-.32s.32.14.32.32l.04 5.93c0 .18-.14.321-.32.321z"/>
        <path fill="url(#ax)" d="M139.565 140.85c-.18 0-.32-.14-.32-.32l-.04-5.93c0-.181.14-.321.32-.321s.32.14.32.32l.04 5.93c0 .181-.14.321-.32.321z"/>
        <path fill="url(#aV)" d="M141.203 141.652c-.18 0-.32-.14-.32-.32l-.04-5.931c0-.18.14-.32.32-.32s.32.14.32.32l.04 5.93c.02.18-.14.34-.32.32z"/>
        <path fill="url(#az)" d="M142.86 142.473c-.179 0-.319-.14-.319-.32l-.04-5.93c0-.181.14-.321.32-.321s.32.14.32.32l.04 5.93c0 .161-.14.321-.32.321z"/>
        <path fill="url(#aA)" d="M144.499 143.275c-.18 0-.32-.14-.32-.32l-.04-5.931c0-.18.14-.321.32-.321s.32.14.32.32l.04 5.931c.02.18-.14.32-.32.32z"/>
        <path fill="url(#aB)" d="M146.157 144.076c-.18 0-.32-.14-.32-.32l-.04-5.931c0-.18.14-.32.32-.32s.32.14.32.32l.04 5.93c0 .18-.14.321-.32.321z"/>
        <path fill="url(#aC)" d="M147.795 144.898c-.18 0-.32-.14-.32-.321l-.04-5.93c0-.18.14-.321.32-.321s.32.14.32.32l.04 5.931c.02.16-.12.32-.32.32z"/>
        <path fill="url(#aW)" d="M149.453 145.699c-.18 0-.32-.14-.32-.32l-.04-5.931c0-.18.14-.32.32-.32s.32.14.32.32l.04 5.93c0 .16-.14.321-.32.321z"/>
    </g>
</svg>
