<svg xmlns="http://www.w3.org/2000/svg" width="341" height="276" viewBox="0 0 341 276">
    <g fill="#FFF" fill-rule="evenodd">
        <path d="M36 63.5a3.5 3.5 0 0 0 3.5 3.5h94a3.5 3.5 0 1 0 0-7h-94a3.5 3.5 0 0 0-3.5 3.5z" opacity=".2"/>
        <path d="M145 63.5a3.5 3.5 0 0 0 3.5 3.5h80a3.5 3.5 0 1 0 0-7h-80a3.5 3.5 0 0 0-3.5 3.5z" opacity=".1"/>
        <path d="M5.94 65.13c-.36 0-.677-.072-.953-.218a5.556 5.556 0 0 1-.892-.607 6.147 6.147 0 0 0-.637-.435.934.934 0 0 0-.458-.12.833.833 0 0 0-.697.345c-.176.23-.273.535-.293.915H.81c.02-.87.22-1.532.6-1.987.38-.456.88-.683 1.5-.683.37 0 .692.072.967.218.276.145.578.352.908.622.24.19.437.33.593.42.155.09.312.135.472.135.3 0 .537-.115.713-.345.175-.23.272-.54.292-.93H8.04c-.01.88-.205 1.545-.585 1.995-.38.45-.885.675-1.515.675z" opacity=".33"/>
        <path d="M36 48.5a3.5 3.5 0 0 0 3.5 3.5h70a3.5 3.5 0 1 0 0-7h-70a3.5 3.5 0 0 0-3.5 3.5z" opacity=".6"/>
        <path d="M120 48.5a3.5 3.5 0 0 0 3.5 3.5h70a3.5 3.5 0 1 0 0-7h-70a3.5 3.5 0 0 0-3.5 3.5z" opacity=".3"/>
        <path d="M204 48.5a3.5 3.5 0 0 0 3.5 3.5h70a3.5 3.5 0 1 0 0-7h-70a3.5 3.5 0 0 0-3.5 3.5z" opacity=".6"/>
        <path d="M5.94 50.13c-.36 0-.677-.072-.953-.218a5.556 5.556 0 0 1-.892-.607 6.147 6.147 0 0 0-.637-.435.934.934 0 0 0-.458-.12.833.833 0 0 0-.697.345c-.176.23-.273.535-.293.915H.81c.02-.87.22-1.532.6-1.987.38-.456.88-.683 1.5-.683.37 0 .692.072.967.218.276.145.578.352.908.622.24.19.437.33.593.42.155.09.312.135.472.135.3 0 .537-.115.713-.345.175-.23.272-.54.292-.93H8.04c-.01.88-.205 1.545-.585 1.995-.38.45-.885.675-1.515.675z" opacity=".33"/>
        <g opacity=".4">
            <path d="M36 33.5a3.5 3.5 0 0 0 3.5 3.5h116a3.5 3.5 0 1 0 0-7h-116a3.5 3.5 0 0 0-3.5 3.5z" opacity=".2"/>
            <path d="M166 33.5a3.5 3.5 0 0 0 3.5 3.5h80a3.5 3.5 0 1 0 0-7h-80a3.5 3.5 0 0 0-3.5 3.5z" opacity=".6"/>
            <path d="M260 33.5a3.5 3.5 0 0 0 3.5 3.5h35a3.5 3.5 0 1 0 0-7h-35a3.5 3.5 0 0 0-3.5 3.5z" opacity=".3"/>
            <path d="M5.94 35.13c-.36 0-.677-.072-.953-.218a5.556 5.556 0 0 1-.892-.607 6.147 6.147 0 0 0-.637-.435.934.934 0 0 0-.458-.12.833.833 0 0 0-.697.345c-.176.23-.273.535-.293.915H.81c.02-.87.22-1.532.6-1.987.38-.456.88-.683 1.5-.683.37 0 .692.072.967.218.276.145.578.352.908.622.24.19.437.33.593.42.155.09.312.135.472.135.3 0 .537-.115.713-.345.175-.23.272-.54.292-.93H8.04c-.01.88-.205 1.545-.585 1.995-.38.45-.885.675-1.515.675z" opacity=".33"/>
        </g>
        <g opacity=".7">
            <path d="M37 18.5a3.5 3.5 0 0 0 3.5 3.5h34a3.5 3.5 0 0 0 0-7h-34a3.5 3.5 0 0 0-3.5 3.5z" opacity=".1"/>
            <path d="M5.94 20.13c-.36 0-.677-.072-.953-.218a5.556 5.556 0 0 1-.892-.607 6.147 6.147 0 0 0-.637-.435.934.934 0 0 0-.458-.12.833.833 0 0 0-.697.345c-.176.23-.273.535-.293.915H.81c.02-.87.22-1.532.6-1.988.38-.455.88-.682 1.5-.682.37 0 .692.072.967.217.276.146.578.353.908.623.24.19.437.33.593.42.155.09.312.135.472.135.3 0 .537-.115.713-.345.175-.23.272-.54.292-.93H8.04c-.01.88-.205 1.545-.585 1.995-.38.45-.885.675-1.515.675z" opacity=".33"/>
        </g>
        <g opacity=".03">
            <path d="M37 3.5A3.5 3.5 0 0 0 40.5 7h109a3.5 3.5 0 1 0 0-7h-109A3.5 3.5 0 0 0 37 3.5z" opacity=".6"/>
            <path d="M161 3.5a3.5 3.5 0 0 0 3.5 3.5h63a3.5 3.5 0 1 0 0-7h-63a3.5 3.5 0 0 0-3.5 3.5z" opacity=".2"/>
            <path d="M5.94 5.13c-.36 0-.677-.072-.953-.218a5.556 5.556 0 0 1-.892-.607 6.147 6.147 0 0 0-.637-.435A.934.934 0 0 0 3 3.75a.833.833 0 0 0-.697.345c-.176.23-.273.535-.293.915H.81c.02-.87.22-1.532.6-1.987.38-.456.88-.683 1.5-.683.37 0 .692.072.967.218.276.145.578.352.908.622.24.19.437.33.593.42.155.09.312.135.472.135.3 0 .537-.115.713-.345.175-.23.272-.54.292-.93H8.04c-.01.88-.205 1.545-.585 1.995-.38.45-.885.675-1.515.675z" opacity=".33"/>
        </g>
        <path d="M36 78.5a3.5 3.5 0 0 0 3.5 3.5h35a3.5 3.5 0 0 0 0-7h-35a3.5 3.5 0 0 0-3.5 3.5z" opacity=".4"/>
        <g>
            <path d="M36 211.5a3.5 3.5 0 0 1 3.5-3.5h109a3.5 3.5 0 1 1 0 7h-109a3.5 3.5 0 0 1-3.5-3.5z" opacity=".6"/>
            <path d="M36 181.5a3.5 3.5 0 0 1 3.5-3.5h116a3.5 3.5 0 1 1 0 7h-116a3.5 3.5 0 0 1-3.5-3.5z" opacity=".3"/>
            <path d="M36 166.5a3.5 3.5 0 0 1 3.5-3.5h70a3.5 3.5 0 0 1 0 7h-70a3.5 3.5 0 0 1-3.5-3.5z" opacity=".4"/>
            <path d="M120 166.5a3.5 3.5 0 0 1 3.5-3.5h70a3.5 3.5 0 1 1 0 7h-70a3.5 3.5 0 0 1-3.5-3.5z" opacity=".6"/>
            <path d="M204 166.5a3.5 3.5 0 0 1 3.5-3.5h70a3.5 3.5 0 1 1 0 7h-70a3.5 3.5 0 0 1-3.5-3.5z" opacity=".15"/>
            <path d="M166 181.5a3.5 3.5 0 0 1 3.5-3.5h80a3.5 3.5 0 1 1 0 7h-80a3.5 3.5 0 0 1-3.5-3.5z" opacity=".6"/>
            <path d="M260 181.5a3.5 3.5 0 0 1 3.5-3.5h35a3.5 3.5 0 1 1 0 7h-35a3.5 3.5 0 0 1-3.5-3.5zM36 151.5a3.5 3.5 0 0 1 3.5-3.5h94a3.5 3.5 0 1 1 0 7h-94a3.5 3.5 0 0 1-3.5-3.5z" opacity=".2"/>
            <path d="M145 151.5a3.5 3.5 0 0 1 3.5-3.5h94a3.5 3.5 0 1 1 0 7h-94a3.5 3.5 0 0 1-3.5-3.5z" opacity=".6"/>
            <path d="M36 241.5a3.5 3.5 0 0 1 3.5-3.5h116a3.5 3.5 0 1 1 0 7h-116a3.5 3.5 0 0 1-3.5-3.5z" opacity=".3"/>
            <path d="M36 226.5a3.5 3.5 0 0 1 3.5-3.5h70a3.5 3.5 0 0 1 0 7h-70a3.5 3.5 0 0 1-3.5-3.5z" opacity=".4"/>
            <path d="M120 226.5a3.5 3.5 0 0 1 3.5-3.5h70a3.5 3.5 0 1 1 0 7h-70a3.5 3.5 0 0 1-3.5-3.5zM166 241.5a3.5 3.5 0 0 1 3.5-3.5h80a3.5 3.5 0 1 1 0 7h-80a3.5 3.5 0 0 1-3.5-3.5z" opacity=".6"/>
            <path d="M36 211.5a3.5 3.5 0 0 1 3.5-3.5h94a3.5 3.5 0 0 1 0 7h-94a3.5 3.5 0 0 1-3.5-3.5z" opacity=".2"/>
            <path d="M36 256.5a3.5 3.5 0 0 1 3.5-3.5h94a3.5 3.5 0 0 1 0 7h-94a3.5 3.5 0 0 1-3.5-3.5z" opacity=".6"/>
            <path d="M254 151.5a3.5 3.5 0 0 1 3.5-3.5h80a3.5 3.5 0 1 1 0 7h-80a3.5 3.5 0 0 1-3.5-3.5z" opacity=".3"/>
            <path d="M36 136.5a3.5 3.5 0 0 1 3.5-3.5h35a3.5 3.5 0 1 1 0 7h-35a3.5 3.5 0 0 1-3.5-3.5zM37 196.5a3.5 3.5 0 0 1 3.5-3.5h34a3.5 3.5 0 0 1 0 7h-34a3.5 3.5 0 0 1-3.5-3.5z" opacity=".4"/>
            <path d="M160 211.5a3.5 3.5 0 0 1 3.5-3.5h63a3.5 3.5 0 1 1 0 7h-63a3.5 3.5 0 0 1-3.5-3.5z" opacity=".6"/>
        </g>
        <g opacity=".33" transform="translate(36 98)">
            <text font-family="Montserrat-SemiBold, Montserrat" font-size="15" font-weight="500">
                <tspan x="0" y="15">#</tspan>
            </text>
            <rect width="157" height="7" x="21" y="6" rx="3.5"/>
        </g>
        <g opacity=".33">
            <path d="M5.94 80.13c-.36 0-.677-.072-.953-.217a5.556 5.556 0 0 1-.892-.608 6.147 6.147 0 0 0-.637-.435.934.934 0 0 0-.458-.12.833.833 0 0 0-.697.345c-.176.23-.273.535-.293.915H.81c.02-.87.22-1.532.6-1.988.38-.455.88-.682 1.5-.682.37 0 .692.072.967.217.276.146.578.353.908.623.24.19.437.33.593.42.155.09.312.135.472.135.3 0 .537-.115.713-.345.175-.23.272-.54.292-.93H8.04c-.01.88-.205 1.545-.585 1.995-.38.45-.885.675-1.515.675zM5.94 95.13c-.36 0-.677-.072-.953-.217a5.556 5.556 0 0 1-.892-.608 6.147 6.147 0 0 0-.637-.435.934.934 0 0 0-.458-.12.833.833 0 0 0-.697.345c-.176.23-.273.535-.293.915H.81c.02-.87.22-1.532.6-1.988.38-.455.88-.682 1.5-.682.37 0 .692.072.967.217.276.146.578.353.908.623.24.19.437.33.593.42.155.09.312.135.472.135.3 0 .537-.115.713-.345.175-.23.272-.54.292-.93H8.04c-.01.88-.205 1.545-.585 1.995-.38.45-.885.675-1.515.675zM5.94 110.13c-.36 0-.677-.072-.953-.218a5.556 5.556 0 0 1-.892-.607 6.147 6.147 0 0 0-.637-.435.934.934 0 0 0-.458-.12.833.833 0 0 0-.697.345c-.176.23-.273.535-.293.915H.81c.02-.87.22-1.532.6-1.988.38-.455.88-.682 1.5-.682.37 0 .692.072.967.217.276.146.578.353.908.623.24.19.437.33.593.42.155.09.312.135.472.135.3 0 .537-.115.713-.345.175-.23.272-.54.292-.93H8.04c-.01.88-.205 1.545-.585 1.995-.38.45-.885.675-1.515.675zM5.94 125.13c-.36 0-.677-.072-.953-.218a5.556 5.556 0 0 1-.892-.607 6.147 6.147 0 0 0-.637-.435.934.934 0 0 0-.458-.12.833.833 0 0 0-.697.345c-.176.23-.273.535-.293.915H.81c.02-.87.22-1.532.6-1.988.38-.455.88-.682 1.5-.682.37 0 .692.072.967.217.276.146.578.353.908.623.24.19.437.33.593.42.155.09.312.135.472.135.3 0 .537-.115.713-.345.175-.23.272-.54.292-.93H8.04c-.01.88-.205 1.545-.585 1.995-.38.45-.885.675-1.515.675zM5.94 140.13c-.36 0-.677-.072-.953-.218a5.556 5.556 0 0 1-.892-.607 6.147 6.147 0 0 0-.637-.435.934.934 0 0 0-.458-.12.833.833 0 0 0-.697.345c-.176.23-.273.535-.293.915H.81c.02-.87.22-1.532.6-1.987.38-.456.88-.683 1.5-.683.37 0 .692.072.967.217.276.146.578.353.908.623.24.19.437.33.593.42.155.09.312.135.472.135.3 0 .537-.115.713-.345.175-.23.272-.54.292-.93H8.04c-.01.88-.205 1.545-.585 1.995-.38.45-.885.675-1.515.675zM5.94 155.13c-.36 0-.677-.072-.953-.218a5.556 5.556 0 0 1-.892-.607 6.147 6.147 0 0 0-.637-.435.934.934 0 0 0-.458-.12.833.833 0 0 0-.697.345c-.176.23-.273.535-.293.915H.81c.02-.87.22-1.532.6-1.988.38-.455.88-.682 1.5-.682.37 0 .692.072.967.217.276.146.578.353.908.623.24.19.437.33.593.42.155.09.312.135.472.135.3 0 .537-.115.713-.345.175-.23.272-.54.292-.93H8.04c-.01.88-.205 1.545-.585 1.995-.38.45-.885.675-1.515.675zM5.94 170.13c-.36 0-.677-.072-.953-.218a5.556 5.556 0 0 1-.892-.607 6.147 6.147 0 0 0-.637-.435.934.934 0 0 0-.458-.12.833.833 0 0 0-.697.345c-.176.23-.273.535-.293.915H.81c.02-.87.22-1.532.6-1.988.38-.455.88-.682 1.5-.682.37 0 .692.072.967.217.276.146.578.353.908.623.24.19.437.33.593.42.155.09.312.135.472.135.3 0 .537-.115.713-.345.175-.23.272-.54.292-.93H8.04c-.01.88-.205 1.545-.585 1.995-.38.45-.885.675-1.515.675zM5.94 185.13c-.36 0-.677-.072-.953-.218a5.556 5.556 0 0 1-.892-.607 6.147 6.147 0 0 0-.637-.435.934.934 0 0 0-.458-.12.833.833 0 0 0-.697.345c-.176.23-.273.535-.293.915H.81c.02-.87.22-1.532.6-1.988.38-.455.88-.682 1.5-.682.37 0 .692.072.967.217.276.146.578.353.908.623.24.19.437.33.593.42.155.09.312.135.472.135.3 0 .537-.115.713-.345.175-.23.272-.54.292-.93H8.04c-.01.88-.205 1.545-.585 1.995-.38.45-.885.675-1.515.675zM5.94 200.13c-.36 0-.677-.072-.953-.218a5.556 5.556 0 0 1-.892-.607 6.147 6.147 0 0 0-.637-.435.934.934 0 0 0-.458-.12.833.833 0 0 0-.697.345c-.176.23-.273.535-.293.915H.81c.02-.87.22-1.532.6-1.988.38-.455.88-.682 1.5-.682.37 0 .692.072.967.217.276.146.578.353.908.623.24.19.437.33.593.42.155.09.312.135.472.135.3 0 .537-.115.713-.345.175-.23.272-.54.292-.93H8.04c-.01.88-.205 1.545-.585 1.995-.38.45-.885.675-1.515.675zM5.94 215.13c-.36 0-.677-.072-.953-.218a5.556 5.556 0 0 1-.892-.607 6.147 6.147 0 0 0-.637-.435.934.934 0 0 0-.458-.12.833.833 0 0 0-.697.345c-.176.23-.273.535-.293.915H.81c.02-.87.22-1.532.6-1.987.38-.456.88-.683 1.5-.683.37 0 .692.072.967.218.276.145.578.352.908.622.24.19.437.33.593.42.155.09.312.135.472.135.3 0 .537-.115.713-.345.175-.23.272-.54.292-.93H8.04c-.01.88-.205 1.545-.585 1.995-.38.45-.885.675-1.515.675zM5.94 230.13c-.36 0-.677-.072-.953-.218a5.556 5.556 0 0 1-.892-.607 6.147 6.147 0 0 0-.637-.435.934.934 0 0 0-.458-.12.833.833 0 0 0-.697.345c-.176.23-.273.535-.293.915H.81c.02-.87.22-1.532.6-1.987.38-.456.88-.683 1.5-.683.37 0 .692.072.967.218.276.145.578.352.908.622.24.19.437.33.593.42.155.09.312.135.472.135.3 0 .537-.115.713-.345.175-.23.272-.54.292-.93H8.04c-.01.88-.205 1.545-.585 1.995-.38.45-.885.675-1.515.675zM5.94 245.13c-.36 0-.677-.072-.953-.218a5.556 5.556 0 0 1-.892-.607 6.147 6.147 0 0 0-.637-.435.934.934 0 0 0-.458-.12.833.833 0 0 0-.697.345c-.176.23-.273.535-.293.915H.81c.02-.87.22-1.532.6-1.987.38-.456.88-.683 1.5-.683.37 0 .692.072.967.218.276.145.578.352.908.622.24.19.437.33.593.42.155.09.312.135.472.135.3 0 .537-.115.713-.345.175-.23.272-.54.292-.93H8.04c-.01.88-.205 1.545-.585 1.995-.38.45-.885.675-1.515.675zM5.94 260.13c-.36 0-.677-.072-.953-.218a5.556 5.556 0 0 1-.892-.607 6.147 6.147 0 0 0-.637-.435.934.934 0 0 0-.458-.12.833.833 0 0 0-.697.345c-.176.23-.273.535-.293.915H.81c.02-.87.22-1.532.6-1.987.38-.456.88-.683 1.5-.683.37 0 .692.072.967.218.276.145.578.352.908.622.24.19.437.33.593.42.155.09.312.135.472.135.3 0 .537-.115.713-.345.175-.23.272-.54.292-.93H8.04c-.01.88-.205 1.545-.585 1.995-.38.45-.885.675-1.515.675zM5.94 275.13c-.36 0-.677-.072-.953-.218a5.556 5.556 0 0 1-.892-.607 6.147 6.147 0 0 0-.637-.435.934.934 0 0 0-.458-.12.833.833 0 0 0-.697.345c-.176.23-.273.535-.293.915H.81c.02-.87.22-1.532.6-1.987.38-.456.88-.683 1.5-.683.37 0 .692.072.967.218.276.145.578.352.908.622.24.19.437.33.593.42.155.09.312.135.472.135.3 0 .537-.115.713-.345.175-.23.272-.54.292-.93H8.04c-.01.88-.205 1.545-.585 1.995-.38.45-.885.675-1.515.675z"/>
        </g>
    </g>
</svg>
